 Avalude Raavukal (1978) Malayalam Hot Movie DvdRip -MJY


Avalude Ravukal (Malayalam: α┤àα┤╡α┤│α╡üα┤ƒα╡å α┤░α┤╛α┤╡α╡üα┤òα┤│α╡ì*) is a Malayalam film directed by I. V. Sasi, released in 1978. The film explores the life of a teenage prostitute and those of the people around her. This movie was dubbed in Tamil as Avalin Iravugal.

Cast

Seema
Ravi Kumar
Soman
Sukumaran
Thoppil Bhasi
Bahadoor
Kaviyoor Ponnamma
Kuthiravattam Pappu
Janardhanan
Shankarady
Mallika


Format                           : MPEG-4
Format profile                   : Base Media / Version 2
Codec ID                         : mp42
File size                        : 659 MiB
Duration                         : 2h 25mn
Overall bit rate                 : 634 Kbps
Encoded date                     : UTC 2011-06-30 17:05:08
Tagged date                      : UTC 2011-06-30 17:07:55
Writing application              : mp4creator 1.6.1d

Video
ID                               : 1
Format                           : MPEG-4 Visual
Format profile                   : Simple@L1
Format settings, BVOP            : No
Format settings, QPel            : No
Format settings, GMC             : No warppoints
Format settings, Matrix          : Default (H.263)
Codec ID                         : 20
Duration                         : 2h 25mn
Bit rate mode                    : Variable
Bit rate                         : 506 Kbps
Maximum bit rate                 : 1 993 Kbps
Width                            : 352 pixels
Height                           : 288 pixels
Display aspect ratio             : 1.222
Original display aspect ratio    : 4:3
Frame rate mode                  : Constant
Frame rate                       : 25.000 fps
Standard                         : PAL
Color space                      : YUV
Chroma subsampling               : 4:2:0
Bit depth                        : 8 bits
Scan type                        : Progressive
Compression mode                 : Lossy
Bits/(Pixel*Frame)               : 0.200
Stream size                      : 526 MiB (80%)
Language                         : English
Encoded date                     : UTC 2011-06-30 17:05:08
Tagged date                      : UTC 2011-06-30 17:07:31

Audio
ID                               : 2
Format                           : AAC
Format/Info                      : Advanced Audio Codec
Format profile                   : LC
Codec ID                         : 40
Duration                         : 2h 25mn
Bit rate mode                    : Variable
Bit rate                         : 125 Kbps
Maximum bit rate                 : 251 Kbps
Channel(s)                       : 2 channels
Channel positions                : Front: L R
Sampling rate                    : 44.1 KHz
Compression mode                 : Lossy
Stream size                      : 130 MiB (20%)
Language                         : English
Encoded date                     : UTC 2011-06-30 17:07:41
Tagged date                      : UTC 2011-06-30 17:07:55

Stars: Seema, Thoppil Bhasi, Ravi Kumar, Soman, Sukumaran, Meena, Pappu
Director: I.V. Sasi
Music: A.T.Ummar
Lyricis: Bichu Thirumala
Genre: FAMILY DRAMA
Language: MALAYALAM
Subtitles: No
Format: B/W
Year: 1978
Company: Harmony		
 
http://img18.imageshack.us/img18/861/avaluderaavukal1978mala.jpg
 
http://img841.imageshack.us/img841/861/avaluderaavukal1978mala.jpg